<svg xmlns="http://www.w3.org/2000/svg" xmlns:xlink="http://www.w3.org/1999/xlink" viewBox="0 0 430 430" width="430" height="430" preserveAspectRatio="xMidYMid meet" style="width: 100%; height: 100%; transform: translate3d(0px, 0px, 0px); content-visibility: visible;"><defs><clipPath id="__lottie_element_51"><rect width="430" height="430" x="0" y="0"/></clipPath><clipPath id="__lottie_element_53"><path d="M0,0 L430,0 L430,430 L0,430z"/></clipPath></defs><g clip-path="url(#__lottie_element_51)"><g clip-path="url(#__lottie_element_53)" transform="matrix(1,0,0,1,0,0)" opacity="1" style="display: block;"><g transform="matrix(0,1,-1,0,215,309)" opacity="1" style="display: none;"><g opacity="1" transform="matrix(1,0,0,1,0,0)"><path stroke-linecap="round" stroke-linejoin="round" fill-opacity="0" class="primary" stroke="rgb(255,255,0)" stroke-opacity="1" stroke-width="18" d=" M93,0 C93,0 94.00800323486328,1.0080000162124634 94.00800323486328,1.0080000162124634 C94.00800323486328,1.0080000162124634 93.00599670410156,2.010999917984009 93.00599670410156,2.010999917984009"/></g></g><g transform="matrix(0,1,-1,0,215,215)" opacity="1" style="display: block;"><g opacity="1" transform="matrix(1,0,0,1,0,0)"><path stroke-linecap="round" stroke-linejoin="round" fill-opacity="0" class="primary" stroke="rgb(255,255,0)" stroke-opacity="1" stroke-width="18" d=" M-89,-182 C-89,-182 95.50399780273438,2.503999948501587 95.50399780273438,2.503999948501587 C95.50399780273438,2.503999948501587 -87.99199676513672,186 -87.99199676513672,186"/></g></g></g></g></svg>